<svg width="840" height="350" viewBox="0 0 840 350" fill="#FFF" xmlns="http://www.w3.org/2000/svg">
<rect x="663" y="95" width="16" height="169" fill="#FFF"/>
<rect x="605" y="95" width="16" height="169" fill="#FFF"/>
<rect x="554" y="122" width="16" height="132" fill="#FFF"/>
<rect x="415.764" y="95.1626" width="16" height="169" fill="#FFF"/>
<rect x="718" y="95" width="16" height="169" fill="#FFF"/>
<rect x="578" y="122" width="194" height="20" fill="#FFF"/>
<path d="M415.764 95.2219C417.409 89.9152 423.573 85.5641 431.264 81.1626C438.955 76.7612 447.532 72.4806 458.676 70.4679C469.82 68.4552 481.555 67.9437 492.396 68.9982C503.238 70.0527 512.699 72.6257 519.583 76.392L507.139 81.4428C502.094 78.6829 495.161 76.7974 487.217 76.0247C479.272 75.252 470.673 75.6268 462.506 77.1016C454.34 78.5765 446.973 81.0853 441.337 84.3107C435.701 87.536 432.97 91.2739 431.764 95.1626L415.764 95.2219Z" fill="#FFF"/>
<path d="M605 95.1626C606.645 89.8559 612.573 85.5641 620.264 81.1626C627.955 76.7611 636.532 72.4805 647.676 70.4678C658.82 68.4552 670.555 67.9437 681.396 68.9982C692.238 70.0527 701.699 72.6257 708.583 76.3919L696.139 81.4428C691.094 78.6829 684.161 76.7974 676.217 76.0247C668.272 75.2519 659.673 75.6267 651.506 77.1016C643.34 78.5765 635.973 81.0853 630.337 84.3106C624.701 87.536 622.206 91.2739 621 95.1626L605 95.1626Z" fill="#FFF"/>
<path d="M594.912 226.622C590.835 235.833 585.964 241.798 580.418 247.394C574.871 252.99 569.102 258.078 563.956 258.172C558.81 258.266 554.456 255.414 551.445 249.974C548.434 244.535 546.901 236.754 547.04 227.615L554 219.109C553.898 225.806 555.664 234.762 557.871 238.747C560.077 242.733 563.268 244.824 567.039 244.755C570.81 244.686 574.992 242.46 579.056 238.359C583.121 234.258 586.45 228.202 589.438 221.452L594.912 226.622Z" fill="#FFF"/>
<path d="M559.5 200.939C559.5 235.733 534.204 263.939 503 263.939C471.796 263.939 446.5 235.733 446.5 200.939C446.5 166.146 471.796 137.939 503 137.939C534.204 137.939 559.5 166.146 559.5 200.939ZM459 200.939C565 200.939 474.864 249.75 503 249.75C531.136 249.75 529 232.312 529 200.939C529 169.567 531.136 151.561 503 151.561C474.864 151.561 459 169.567 459 200.939Z" fill="#FFF"/>
<path d="M404.577 216.917C395.824 235.051 381.577 249.602 364.085 258.271C346.594 266.94 326.854 269.233 307.985 264.788C289.116 260.343 272.193 249.414 259.888 233.726C247.583 218.038 240.598 198.486 240.037 178.158C239.475 157.83 245.369 137.884 256.786 121.471C268.204 105.058 284.496 93.1139 303.087 87.5241C321.679 81.9344 341.512 83.0181 359.453 90.6041C377.394 98.1901 392.42 111.846 402.159 129.415L382.446 141.502C375.261 128.541 364.176 118.467 350.941 112.871C337.705 107.275 323.075 106.475 309.359 110.599C295.644 114.723 283.625 123.534 275.202 135.642C266.779 147.75 262.432 162.464 262.846 177.461C263.26 192.457 268.413 206.881 277.49 218.454C286.568 230.027 299.053 238.09 312.973 241.369C326.892 244.648 341.454 242.956 354.358 236.561C367.262 230.166 377.773 219.432 384.23 206.054L404.577 216.917Z" fill="#FFF"/>
<path d="M201.891 215.25C201.891 210.469 201.141 206.25 199.641 202.594C198.234 198.844 195.703 195.469 192.047 192.469C188.484 189.469 183.516 186.609 177.141 183.891C170.859 181.172 162.891 178.406 153.234 175.594C143.109 172.594 133.969 169.266 125.812 165.609C117.656 161.859 110.672 157.594 104.859 152.812C99.0469 148.031 94.5938 142.547 91.5 136.359C88.4062 130.172 86.8594 123.094 86.8594 115.125C86.8594 107.156 88.5 99.7969 91.7812 93.0469C95.0625 86.2969 99.75 80.4375 105.844 75.4688C112.031 70.4062 119.391 66.4688 127.922 63.6562C136.453 60.8438 145.969 59.4375 156.469 59.4375C171.844 59.4375 184.875 62.3906 195.562 68.2969C206.344 74.1094 214.547 81.75 220.172 91.2188C225.797 100.594 228.609 110.625 228.609 121.312H201.609C201.609 113.625 199.969 106.828 196.688 100.922C193.406 94.9219 188.438 90.2344 181.781 86.8594C175.125 83.3906 166.688 81.6562 156.469 81.6562C146.812 81.6562 138.844 83.1094 132.562 86.0156C126.281 88.9219 121.594 92.8594 118.5 97.8281C115.5 102.797 114 108.469 114 114.844C114 119.156 114.891 123.094 116.672 126.656C118.547 130.125 121.406 133.359 125.25 136.359C129.188 139.359 134.156 142.125 140.156 144.656C146.25 147.188 153.516 149.625 161.953 151.969C173.578 155.25 183.609 158.906 192.047 162.938C200.484 166.969 207.422 171.516 212.859 176.578C218.391 181.547 222.469 187.219 225.094 193.594C227.812 199.875 229.172 207 229.172 214.969C229.172 223.312 227.484 230.859 224.109 237.609C220.734 244.359 215.906 250.125 209.625 254.906C203.344 259.688 195.797 263.391 186.984 266.016C178.266 268.547 168.516 269.812 157.734 269.812C148.266 269.812 138.938 268.5 129.75 265.875C120.656 263.25 112.359 259.312 104.859 254.062C97.4531 248.812 91.5 242.344 87 234.656C82.5938 226.875 80.3906 217.875 80.3906 207.656H107.391C107.391 214.688 108.75 220.734 111.469 225.797C114.188 230.766 117.891 234.891 122.578 238.172C127.359 241.453 132.75 243.891 138.75 245.484C144.844 246.984 151.172 247.734 157.734 247.734C167.203 247.734 175.219 246.422 181.781 243.797C188.344 241.172 193.312 237.422 196.688 232.547C200.156 227.672 201.891 221.906 201.891 215.25Z" fill="#FFF"/>
</svg>
